<svg width="14" height="13" viewBox="0 0 14 13" fill="none" xmlns="http://www.w3.org/2000/svg">
<path d="M12.9384 1.56251C12.2591 0.88492 11.3391 0.503877 10.3797 0.502706C9.42022 0.501535 8.49933 0.880331 7.81839 1.55626L7.00089 2.31564L6.18277 1.55376C5.50199 0.87489 4.57941 0.494261 3.618 0.495609C2.65658 0.496957 1.73507 0.880171 1.0562 1.56095C0.377331 2.24173 -0.00329747 3.1643 -0.00194956 4.12572C-0.000601647 5.08714 0.382612 6.00864 1.06339 6.68751L6.64776 12.3538C6.69429 12.401 6.74975 12.4385 6.81091 12.4641C6.87207 12.4897 6.93771 12.5029 7.00401 12.5029C7.07032 12.5029 7.13596 12.4897 7.19712 12.4641C7.25828 12.4385 7.31374 12.401 7.36026 12.3538L12.9384 6.68751C13.6177 6.00775 13.9994 5.08605 13.9994 4.12501C13.9994 3.16397 13.6177 2.24227 12.9384 1.56251ZM12.229 5.98501L7.00089 11.2875L1.76964 5.98001C1.27733 5.4877 1.00076 4.81999 1.00076 4.12376C1.00076 3.42753 1.27733 2.75982 1.76964 2.26751C2.26195 1.7752 2.92966 1.49863 3.62589 1.49863C4.32212 1.49863 4.98983 1.7752 5.48214 2.26751L5.49464 2.28001L6.66026 3.36439C6.75279 3.45049 6.8745 3.49836 7.00089 3.49836C7.12728 3.49836 7.24899 3.45049 7.34151 3.36439L8.50714 2.28001L8.51964 2.26751C9.01228 1.77553 9.68018 1.49941 10.3764 1.49988C11.0726 1.50035 11.7402 1.77737 12.2321 2.27001C12.7241 2.76265 13.0002 3.43055 12.9998 4.12678C12.9993 4.82301 12.7223 5.49053 12.2296 5.98251L12.229 5.98501Z" fill="#EC1919"/>
<path d="M12.229 5.98501L7.00089 11.2875L1.76964 5.98001C1.27733 5.4877 1.00076 4.81999 1.00076 4.12376C1.00076 3.42753 1.27733 2.75982 1.76964 2.26751C2.26195 1.7752 2.92966 1.49863 3.62589 1.49863C4.32212 1.49863 4.98983 1.7752 5.48214 2.26751L5.49464 2.28001L6.66026 3.36439C6.75279 3.45049 6.8745 3.49836 7.00089 3.49836C7.12728 3.49836 7.24899 3.45049 7.34151 3.36439L8.50714 2.28001L8.51964 2.26751C9.01228 1.77553 9.68018 1.49941 10.3764 1.49988C11.0726 1.50035 11.7402 1.77737 12.2321 2.27001C12.7241 2.76265 13.0002 3.43055 12.9998 4.12678C12.9993 4.82301 12.7223 5.49053 12.2296 5.98251L12.229 5.98501Z" fill="#EC1919"/>
</svg>
